Coordinates
version=1
nRows=16
nColumns=42
inDegrees=yes

Units are S.I. units (second, meters, Newtons, ...)
If the header above contains a line with 'inDegrees', this indicates whether rotational values are in degrees (yes) or radians (no).

endheader
time	pelvis_tilt	pelvis_list	pelvis_rotation	pelvis_tx	pelvis_ty	pelvis_tz	hip_flexion_r	hip_adduction_r	hip_rotation_r	knee_angle_r	knee_adduction_r	knee_angle_r_beta	ankle_angle_r	subtalar_angle_r	mtp_angle_r	hip_flexion_l	hip_adduction_l	hip_rotation_l	knee_angle_l	knee_adduction_l	knee_angle_l_beta	ankle_angle_l	subtalar_angle_l	mtp_angle_l	lumbar_extension	lumbar_bending	lumbar_rotation	arm_flex_r	arm_add_r	arm_rot_r	elbow_flex_r	pro_sup_r	wrist_flex_r	wrist_dev_r	arm_flex_l	arm_add_l	arm_rot_l	elbow_flex_l	pro_sup_l	wrist_flex_l	wrist_dev_l
      0.16000000	      1.13394100	     -1.83231141	     -7.75874571	     -2.06086086	      0.89916823	     -0.07429496	    -18.86684282	     -0.59374634	      3.99671029	     12.80470121	      5.56091770	      0.22348420	     12.00998652	      4.62610612	     -9.59448028	     24.15647490	     -4.50815133	     -0.80057822	     13.45486525	      5.75212593	      0.23483170	    -12.29082754	    -18.86559040	     -9.59448028	    -12.77279725	     -2.58084313	      6.13648172	      4.88437302	    -22.77510231	      6.81545812	     47.39011094	     90.00000001	      0.00000000	      0.00000000	    -15.09298500	     -8.73055104	    -12.82636753	     22.10459410	     90.00000001	      0.00000000	      0.00000000
      0.17000000	      1.19331424	     -1.70028962	     -7.61317980	     -2.04829755	      0.90021691	     -0.07532680	    -19.12734437	     -1.02230353	      5.15231516	     13.69493516	      6.10644335	      0.23902171	      9.86737927	      2.18596108	     -9.42657657	     24.01174623	     -4.25620606	      0.18308750	     14.62708608	      6.09762814	      0.25529081	    -12.37247085	    -18.99260737	     -9.42657657	    -12.67407303	     -2.84335711	      5.97333234	      4.41440183	    -22.38274270	      6.45757767	     46.63074567	     90.00000001	      0.00000000	      0.00000000	    -14.38259957	     -8.65393660	    -13.84446414	     21.27549786	     90.00000001	      0.00000000	      0.00000000
      0.18000000	      1.27599709	     -1.61194084	     -7.43588669	     -2.03562200	      0.90163098	     -0.07642887	    -19.27793497	     -1.40677108	      6.37077694	     14.75549872	      6.73740012	      0.25753204	      7.26795718	     -0.66086041	     -9.27712785	     23.74374936	     -4.03876138	      1.00929571	     15.67391925	      6.44537768	      0.27356150	    -12.19322943	    -19.05770705	     -9.27712785	    -12.60113354	     -3.03073310	      5.82942913	      3.76497957	    -22.04674343	      6.16273406	     46.08251822	     90.00000001	      0.00000000	      0.00000000	    -13.69504085	     -8.62136305	    -14.51671710	     20.59469091	     90.00000001	      0.00000000	      0.00000000
      0.19000000	      1.41224592	     -1.52253968	     -7.26837564	     -2.02287639	      0.90328896	     -0.07763669	    -19.14544090	     -1.85565232	      6.65784420	     16.38161503	      7.31715143	      0.28591312	      5.34153640	     -1.14618829	     -9.25164267	     23.31242884	     -3.80401981	      1.63029496	     16.58094068	      6.75854780	      0.28939201	    -11.73121224	    -19.12110018	     -9.25164267	    -12.58825147	     -3.19728411	      5.66567104	      3.03379226	    -21.85472996	      6.18658466	     45.66732482	     90.00000001	      0.00000000	      0.00000000	    -13.32132733	     -8.63344285	    -14.55292682	     20.67053194	     90.00000001	      0.00000000	      0.00000000
      0.20000000	      1.49241734	     -1.59341775	     -7.00304804	     -2.01013989	      0.90537367	     -0.07879533	    -19.11669874	     -2.00354553	      8.84482836	     17.48769139	      8.26039301	      0.30521779	      1.04572847	     -6.95558861	     -9.12116881	     22.80448957	     -3.73208571	      2.25511899	     17.27414300	      7.10004463	      0.30149067	    -11.08858452	    -19.12680401	     -9.12116881	    -12.51571140	     -3.17085607	      5.52603574	      2.47279031	    -21.27424642	      5.55141780	     44.56759477	     90.00000001	      0.00000000	      0.00000000	    -12.40772641	     -8.57219599	    -15.21745161	     19.72247336	     90.00000001	      0.00000000	      0.00000000
      0.21000000	      1.63416812	     -1.65820375	     -6.76128531	     -1.99753110	      0.90760392	     -0.08002812	    -18.74077929	     -2.19287432	      9.94715686	     19.27768700	      9.07967710	      0.33645911	     -2.31036514	     -9.96472765	     -8.99444207	     22.11775725	     -3.64794818	      2.67127857	     17.79020965	      7.39291194	      0.31049773	    -10.29777187	    -19.13936811	     -8.99444207	    -12.53571161	     -3.13137138	      5.32647247	      1.80023181	    -20.90796548	      5.39650826	     43.89035378	     90.00000001	      0.00000000	      0.00000000	    -11.75319163	     -8.47594746	    -15.87721094	     19.49286325	     90.00000001	      0.00000000	      0.00000000
      0.22000000	      1.78369710	     -1.74322782	     -6.51547074	     -1.98505810	      0.90996224	     -0.08132403	    -18.11150866	     -2.34061909	     10.69680442	     21.43473337	      9.85932209	      0.37410667	     -5.44267920	    -12.26671798	     -8.89228037	     21.30987108	     -3.57090571	      2.94923087	     18.11840757	      7.62569273	      0.31622587	     -9.45153554	    -19.13686484	     -8.89228037	    -12.56535186	     -3.04799673	      5.16528137	      1.15347735	    -20.51581469	      5.19338380	     43.02510665	     90.00000001	      0.00000000	      0.00000000	    -11.06382549	     -8.38843207	    -16.17378498	     19.32566965	     90.00000001	      0.00000000	      0.00000000
      0.23000000	      1.91959996	     -1.85027789	     -6.23260374	     -1.97280147	      0.91229665	     -0.08268852	    -17.16260623	     -2.41880236	     10.73828917	     24.11669730	     10.44418181	      0.42091577	     -7.90785842	    -13.27801032	     -8.86190272	     20.44796666	     -3.49113539	      3.08833348	     18.32256515	      7.78176374	      0.31978909	     -8.53375979	    -19.11668748	     -8.86190272	    -12.59387494	     -2.91278482	      4.93968081	      0.41306462	    -20.17163264	      5.19048574	     42.39400601	     90.00000001	      0.00000000	      0.00000000	    -10.51141880	     -8.30220811	    -16.18986149	     19.45330671	     90.00000001	      0.00000000	      0.00000000
      0.24000000	      2.07080363	     -1.97595180	     -6.01318181	     -1.96087214	      0.91479079	     -0.08394761	    -16.10396957	     -2.42946917	     11.31460315	     26.82122182	     11.11282674	      0.46811863	    -10.39221199	    -15.19842163	     -8.78267301	     19.44048292	     -3.47083298	      3.09767643	     18.27437345	      7.91139916	      0.31894799	     -7.74503473	    -19.09194379	     -8.78267301	    -12.66485956	     -2.76926011	      4.76669306	     -0.03843028	    -19.68176224	      4.86128258	     41.31258938	     90.00000001	      0.00000000	      0.00000000	     -9.82320589	     -8.22633074	    -16.20723109	     19.54833103	     90.00000001	      0.00000000	      0.00000000
      0.25000000	      2.19767979	     -2.11645389	     -5.76479586	     -1.94917255	      0.91716855	     -0.08526088	    -14.76582180	     -2.39358644	     11.09172094	     29.97022549	     11.49077218	      0.52307911	    -11.93991678	    -16.03971965	     -8.74827305	     18.42100850	     -3.44700490	      3.04645610	     18.14384082	      7.98263268	      0.31666976	     -6.98401493	    -19.05454462	     -8.74827305	    -12.72510484	     -2.58031990	      4.53706020	     -0.61898219	    -19.30406738	      4.80323775	     40.58845859	     90.00000001	      0.00000000	      0.00000000	     -9.20362905	     -8.13782401	    -16.12548654	     19.82279087	     90.00000001	      0.00000000	      0.00000000
      0.26000000	      2.29662998	     -2.22581077	     -5.55114851	     -1.93773722	      0.91951100	     -0.08655999	    -13.24576425	     -2.37386756	     10.66572036	     33.26627544	     11.70934768	      0.58060604	    -12.75039954	    -16.71582450	     -8.72231821	     17.35172608	     -3.38392840	      2.95098137	     17.83271699	      7.98866133	      0.31123963	     -6.28161016	    -19.00600344	     -8.72231821	    -12.77379626	     -2.41580251	      4.34090653	     -1.19732179	    -18.92764787	      4.78242298	     39.87261541	     90.00000001	      0.00000000	      0.00000000	     -8.58169685	     -8.05894120	    -15.97617769	     20.23030807	     90.00000001	      0.00000000	      0.00000000
      0.27000000	      2.47063338	     -2.37837828	     -5.38073630	     -1.92652590	      0.92196502	     -0.08780521	    -11.73302788	     -2.30100640	     10.23199097	     36.50427223	     11.82818611	      0.63711974	    -12.97243364	    -17.34947763	     -8.70412840	     16.13008823	     -3.42531826	      2.74122141	     17.39772393	      8.07391359	      0.30364756	     -5.71043303	    -18.95027156	     -8.70412840	    -12.92773800	     -2.19694772	      4.10491457	     -1.66606204	    -18.59212237	      4.77161497	     39.23336982	     90.00000001	      0.00000000	      0.00000000	     -7.93556813	     -7.92389854	    -15.81207227	     20.67327166	     90.00000001	      0.00000000	      0.00000000
      0.28000000	      2.45747887	     -2.51664011	     -5.03966302	     -1.91550515	      0.92413762	     -0.08907819	     -9.83919322	     -2.14665945	      8.39458882	     40.01704961	     11.11023090	      0.69842927	    -13.05101166	    -17.68948893	     -8.66063586	     15.17781796	     -3.38505284	      2.82957501	     17.01118551	      8.04670241	      0.29690120	     -5.22974749	    -18.91150942	     -8.66063586	    -12.89805959	     -1.96927492	      3.59885337	     -1.83215530	    -17.94074265	      4.50516386	     37.87850109	     90.00000001	      0.00000000	      0.00000000	     -7.41967995	     -7.91781252	    -15.38441355	     21.21600016	     90.00000001	      0.00000000	      0.00000000
      0.29000000	      2.49183666	     -2.64097177	     -4.75556410	     -1.90463856	      0.92639908	     -0.09034257	     -8.01947114	     -2.07297790	      6.92349458	     43.16272883	     10.52229320	      0.75333173	    -12.39611401	    -18.06674681	     -8.62857522	     14.08932218	     -3.36197859	      2.87338127	     16.45097118	      8.04402399	      0.28712361	     -4.82270832	    -18.84463627	     -8.62857522	    -12.94115136	     -1.73252592	      3.13266704	     -2.13125443	    -17.42613284	      4.36027069	     36.97739039	     90.00000001	      0.00000000	      0.00000000	     -6.87448712	     -7.87561288	    -15.01207553	     21.82746884	     90.00000001	      0.00000000	      0.00000000
      0.30000000	      2.52660072	     -2.77175984	     -4.45859357	     -1.89375712	      0.92871439	     -0.09159067	     -6.22228972	     -1.98378031	      5.25825009	     45.99277108	      9.67502465	      0.80272529	    -11.48426940	    -18.32853330	     -8.59605841	     12.93004932	     -3.36494323	      2.91551492	     15.76475352	      8.05313711	      0.27514685	     -4.49868512	    -18.79321725	     -8.59605841	    -12.99185175	     -1.48238226	      2.60790315	     -2.37374443	    -16.90783509	      4.20660392	     36.01254283	     90.00000001	      0.00000000	      0.00000000	     -6.37058517	     -7.85849263	    -14.56498178	     22.52188845	     90.00000001	      0.00000000	      0.00000000
      0.31000000	      2.55446046	     -2.91264591	     -4.09503449	     -1.88295609	      0.93104947	     -0.09287321	     -4.46974387	     -1.88439049	      3.53647278	     48.42565752	      8.74015270	      0.84518717	    -10.44411706	    -18.50326358	     -8.56024639	     11.75071492	     -3.37498930	      3.03607289	     15.00087495	      8.04257459	      0.26181466	     -4.26720027	    -18.73854005	     -8.56024639	    -13.05386770	     -1.19614487	      1.96631694	     -2.57021227	    -16.36650276	      4.01533859	     34.98789307	     90.00000001	      0.00000000	      0.00000000	     -5.91682101	     -7.88323889	    -13.99394653	     23.32186083	     90.00000001	      0.00000000	      0.00000000
